<svg xmlns="http://www.w3.org/2000/svg" viewBox="0 0 84 70" width="84" height="70">
	<style>
		tspan { white-space:pre }
		.shp0 { fill: #ff817e } 
	</style>
	<g id="About">
		<path id="Icon " class="shp0" d="M41.91 64.85C41.91 64.85 86.54 41.78 53.35 0C53.35 0 51.16 12.37 38.57 21.91C38.57 21.91 22.83 34.89 31.69 53.25C31.69 53.25 24.54 48.09 16.56 49.88C16.56 49.88 7.69 53.16 0 49.5C0 49.5 7.66 79.63 36.68 66.68C36.68 66.68 25.68 68.46 15.99 60.1C15.99 60.1 26.86 66.44 37.79 64.37C37.79 64.37 51.35 51.29 52.7 29.11C52.7 29.11 55.96 44.85 41.91 64.85ZM80.98 23.94C78.15 22.29 74.53 23.28 72.9 26.13C71.27 28.98 72.24 32.62 75.08 34.27C76.37 35.01 77.83 35.21 79.18 34.94C77.7 39.13 67.62 64.1 36.1 69.99C36.1 69.99 69.36 67.94 83.49 31.45C83.5 31.42 83.5 31.39 83.51 31.36C84.62 28.64 83.59 25.44 80.98 23.94Z" />
	</g>
</svg>